# xmcd
#
# Track frame offsets: 
#        150
#        20495
#        38834
#        55015
#        72258
#        90924
#        109324
#        120969
#        138228
#        176634
#        192904
#        209252
#        221380
#        237000
#        253949
#        272141
#        294969
#        310664
#        327661
#
# Disc length: 4772 seconds
#
# Revision: 0
# Processed by: cddbd v1.5.2PL0 Copyright (c) Steve Scherf et al.
# Submitted via: ExactAudioCopy v0.90b4
#
DISCID=0f12a213
DTITLE=Various Artists / Las 101 canciones del cine (Disc 1)
DYEAR=2007
DGENRE=OST
TTITLE0=Jamie O'Neal / All By My Self
TTITLE1=Ronan Keating / When You Say Nothing At All
TTITLE2=The Ritheous Brothers / Unchained Melody
TTITLE3=Joe Cocker & Jennifer Warnes / Up Where We Belong
TTITLE4=Berlin / Take My Breathe Away
TTITLE5=Tears for Fears / Everyone Wants to Rule the World
TTITLE6=Buffalo Springfield / For What it's Worth
TTITLE7=Christopher Cross / Best That You Can Do
TTITLE8=Don McLean / American Pie
TTITLE9=Faith Hill / There You'll Be
TTITLE10=Bette Midler / The Rose
TTITLE11=Harry Nilsson / Everybody's Talkin'
TTITLE12=Steppenwolf / Born to Be Wild
TTITLE13=The Preternders / Don't Get Me Wrong
TTITLE14=Survivor / Eye of the Tiger
TTITLE15=Bedlam / Magic Carpet Ride
TTITLE16=The Beautiful South / Dream a Little Dream of Me
TTITLE17=Kenny Loggins / Footloose
TTITLE18=Bill Medley & Jennifer Warnes / The Time of My Life
EXTD=
EXTT0=
EXTT1=
EXTT2=
EXTT3=
EXTT4=
EXTT5=
EXTT6=
EXTT7=
EXTT8=
EXTT9=
EXTT10=
EXTT11=
EXTT12=
EXTT13=
EXTT14=
EXTT15=
EXTT16=
EXTT17=
EXTT18=
PLAYORDER=
